<svg xmlns="http://www.w3.org/2000/svg" xmlns:xlink="http://www.w3.org/1999/xlink" x="0" y="0" width="678.624" height="438.313" viewBox="0 0 378.624 438.313">
  <defs>
    <linearGradient id="linear-gradient" x1="1.089" y1="-0.059" x2="0.216" y2="0.817" gradientUnits="objectBoundingBox">
      <stop offset="0" stop-color="#43cea2"/>
      <stop offset="1" stop-color="#185a9d"/>
    </linearGradient>
    <linearGradient id="linear-gradient-2" x1="0.89" y1="0.189" x2="0.109" y2="0.812" xlink:href="#linear-gradient"/>
    <linearGradient id="linear-gradient-3" x1="0.928" y1="0.241" x2="0.072" y2="0.759" xlink:href="#linear-gradient"/>
    <linearGradient id="linear-gradient-4" x1="0.93" y1="0.241" x2="0.074" y2="0.759" xlink:href="#linear-gradient"/>
    <linearGradient id="linear-gradient-5" x1="0.928" y1="0.241" x2="0.072" y2="0.759" xlink:href="#linear-gradient"/>
    <linearGradient id="linear-gradient-6" x1="0.781" y1="0.058" x2="-0.098" y2="1.469" xlink:href="#linear-gradient"/>
    <linearGradient id="linear-gradient-7" x1="1.214" y1="-0.436" x2="0.382" y2="0.956" xlink:href="#linear-gradient"/>
    <linearGradient id="linear-gradient-8" x1="0" y1="0.5" x2="0.999" y2="0.5" xlink:href="#linear-gradient"/>
    <linearGradient id="linear-gradient-9" x1="0" y1="0.5" x2="1" y2="0.5" xlink:href="#linear-gradient"/>
    <linearGradient id="linear-gradient-10" x1="0" y1="0.499" x2="1" y2="0.499" xlink:href="#linear-gradient"/>
    <linearGradient id="linear-gradient-11" x1="-0.001" y1="0.5" x2="0.999" y2="0.5" xlink:href="#linear-gradient"/>
    <linearGradient id="linear-gradient-12" y1="0.5" x2="1" y2="0.5" gradientUnits="objectBoundingBox">
      <stop offset="0" stop-color="#ff9340"/>
      <stop offset="1" stop-color="#ffce45"/>
    </linearGradient>
    <linearGradient id="linear-gradient-13" x1="-0.002" y1="0.5" x2="1" y2="0.5" gradientUnits="objectBoundingBox">
      <stop offset="0" stop-color="#c97332"/>
      <stop offset="1" stop-color="#ffce45"/>
    </linearGradient>
    <linearGradient id="linear-gradient-14" x1="0.222" y1="0.5" x2="0.778" y2="0.5" xlink:href="#linear-gradient"/>
    <linearGradient id="linear-gradient-15" x1="0.325" y1="0.107" x2="0.581" y2="0.823" xlink:href="#linear-gradient"/>
  </defs>
  <g id="CliniExperts_Research_Home_page_vF1_June_12_2019-18" data-name="CliniExperts_Research_Home page_vF1_June 12, 2019-18" transform="translate(-12.516 -11.98)" style="isolation: isolate">
    <g id="Layer_1" data-name="Layer 1" transform="translate(12.516 11.98)">
      <path id="Path_4035" data-name="Path 4035" d="M97.151,194.068l-2.2-2.315,56.6-53.4,57.3,12.41,54.711-62.407,47.725,2.7,37.16-51.261,2.584,1.86-38.183,52.68-47.909-2.7L210,154.267l-57.466-12.453Z" transform="translate(22.103 -0.301)" fill="url(#linear-gradient)"/>
      <path id="Path_4036" data-name="Path 4036" d="M186.4,119.894a8.52,8.52,0,1,1-10.11-6.518A8.52,8.52,0,0,1,186.4,119.894Z" transform="translate(53.435 30.522)" fill="#fff"/>
      <path id="Path_4037" data-name="Path 4037" d="M180.686,132.025a10.1,10.1,0,1,1,7.739-12,10.1,10.1,0,0,1-7.739,12Zm-3.592-16.614a6.9,6.9,0,1,0,5.2.946,6.9,6.9,0,0,0-5.2-.946Z" transform="translate(52.974 30.049)" fill="url(#linear-gradient-2)"/>
      <path id="Path_4038" data-name="Path 4038" d="M224.982,76.244a8.52,8.52,0,1,1-10.11-6.518,8.52,8.52,0,0,1,10.11,6.518Z" transform="translate(69.637 12.191)" fill="#fff"/>
      <path id="Path_4039" data-name="Path 4039" d="M219.289,88.375a10.1,10.1,0,1,1,7.725-12.027A10.1,10.1,0,0,1,219.289,88.375Zm-3.607-16.614a6.9,6.9,0,1,0,5.207.935,6.915,6.915,0,0,0-5.207-.935Z" transform="translate(69.182 11.718)" fill="url(#linear-gradient-3)"/>
      <path id="Path_4040" data-name="Path 4040" d="M258.362,77.574a8.52,8.52,0,1,1-10.11-6.518,8.52,8.52,0,0,1,10.11,6.518Z" transform="translate(83.655 12.75)" fill="#fff"/>
      <path id="Path_4041" data-name="Path 4041" d="M252.62,89.715A10.1,10.1,0,1,1,260.344,77.7a10.1,10.1,0,0,1-7.725,12.013Zm-3.564-16.628a6.915,6.915,0,1,0,8.222,5.3,6.915,6.915,0,0,0-8.222-5.3Z" transform="translate(83.178 12.281)" fill="url(#linear-gradient-4)"/>
      <path id="Path_4042" data-name="Path 4042" d="M145.981,111.68a8.52,8.52,0,1,1-10.11-6.5A8.52,8.52,0,0,1,145.981,111.68Z" transform="translate(36.461 27.078)" fill="#fff"/>
      <path id="Path_4043" data-name="Path 4043" d="M140.25,123.824a10.1,10.1,0,1,1,7.725-12,10.1,10.1,0,0,1-7.725,12Zm-3.607-16.614a6.9,6.9,0,1,0,5.207.935,6.915,6.915,0,0,0-5.207-.935Z" transform="translate(35.987 26.606)" fill="url(#linear-gradient-5)"/>
      <rect id="Rectangle_1511" data-name="Rectangle 1511" width="34.817" height="6.702" transform="translate(163.599 165.468)" fill="#e6e7e8"/>
      <rect id="Rectangle_1512" data-name="Rectangle 1512" width="34.817" height="6.702" transform="translate(195.52 113.27)" fill="#e6e7e8" opacity="0.18"/>
      <rect id="Rectangle_1513" data-name="Rectangle 1513" width="34.817" height="6.702" transform="translate(262.017 151.325)" fill="#e6e7e8"/>
      <rect id="Rectangle_1514" data-name="Rectangle 1514" width="34.817" height="6.702" transform="translate(293.242 57.182)" fill="#e6e7e8" opacity="0.18"/>
      <rect id="Rectangle_1515" data-name="Rectangle 1515" width="34.817" height="6.702" transform="translate(343.806 113.27)" fill="#e6e7e8"/>
      <g id="Group_3728" data-name="Group 3728" transform="translate(19.232)">
        <path id="Path_4044" data-name="Path 4044" d="M162.348,35.324l6.986-10.863-19.4-12.481-6.986,10.848-3.9-2.513-4.87,7.568-4.061-2.613-99.738,154.9,4.047,2.6L26.06,195.765l27.206,17.522,8.378-12.993,4.047,2.613L165.443,48.019l-4.061-2.613,4.87-7.568Z" transform="translate(-26.06 -11.98)" fill="url(#linear-gradient-6)"/>
      </g>
      <g id="Group_3729" data-name="Group 3729" transform="translate(6.254 126.689)">
        <path id="Path_4045" data-name="Path 4045" d="M118.419,225.872h-.568c13.248-12.24,21.413-26.085,24.338-41.434,8.207-42.982-29.72-81.662-31.239-83.238l-10.138,15.62c.312.312,29.961,30.558,23.515,64.282-3.99,21.058-22.009,39.091-53.547,53.717l-11.147-5.864,2.158-4.118-42.6-22.308-2.272,4.331,22.052,11.558L28.606,238.226l42.1,22.052L64.19,280.072H31.333v25.389H168.174V280.072h-49.7Z" transform="translate(-16.92 -101.2)" fill="url(#linear-gradient-7)"/>
      </g>
      <path id="Path_4046" data-name="Path 4046" d="M44.556,26.008a27.776,27.776,0,0,0-8.52,54.9c.625.1,1.235.17,1.86.227a27.774,27.774,0,0,0,6.645-55.123Zm16.33,30.629A20.76,20.76,0,0,1,38.507,74.2a10.091,10.091,0,0,1-1.42-.156,20.831,20.831,0,0,1-17.366-23.77,20.419,20.419,0,0,1,2-6.191A20.831,20.831,0,0,1,60.9,56.637Z" transform="translate(-12.516 -6.228)" fill="#f0f0f0"/>
      <path id="Path_4047" data-name="Path 4047" d="M25.37,63.466l-4.984,4.842a27.817,27.817,0,0,1-4.9-31.878l6.234,3.138a20.419,20.419,0,0,0-2,6.191A20.788,20.788,0,0,0,25.37,63.466Z" transform="translate(-12.513 -1.712)" fill="#128193"/>
      <path id="Path_4048" data-name="Path 4048" d="M36.166,61.689l-.6,6.929a11.881,11.881,0,0,1-1.86-.227,27.618,27.618,0,0,1-15.62-8.08l4.984-4.842a20.831,20.831,0,0,0,11.743,6.063A13.017,13.017,0,0,0,36.166,61.689Z" transform="translate(-10.175 6.284)" fill="#1eb68b"/>
      <path id="Path_4049" data-name="Path 4049" d="M38.522,66.4a27.6,27.6,0,0,1-8.122.483l.6-6.929a20.7,20.7,0,0,0,6.092-.355Z" transform="translate(-5.005 8.018)" fill="#bbbdbf"/>
      <rect id="Rectangle_1516" data-name="Rectangle 1516" width="34.051" height="4.288" transform="translate(5.047 88.208)" fill="#1eb68b"/>
      <rect id="Rectangle_1517" data-name="Rectangle 1517" width="39.446" height="4.288" transform="translate(5.047 97.324)" fill="#1eb68b"/>
      <rect id="Rectangle_1518" data-name="Rectangle 1518" width="199.036" height="182.266" rx="7.79" transform="translate(81.895 183.004)" fill="#f5f5f5" style="mix-blend-mode: hard-light;isolation: isolate"/>
      <path id="Path_4050" data-name="Path 4050" d="M138.222,190.792A28,28,0,0,0,130,160.021a27.688,27.688,0,0,0-6.972-4.26c-.568-.256-1.15-.483-1.747-.7a28,28,0,1,0,16.94,35.8ZM104.8,201.1a20.97,20.97,0,0,1,14.129-39.489c.454.156.88.327,1.306.511a20.632,20.632,0,0,1,5.225,3.252A21,21,0,0,1,104.8,201.1Z" transform="translate(17.44 47.421)" fill="#606060"/>
      <path id="Path_4051" data-name="Path 4051" d="M105.6,160.982l-2.087-6.7a27.988,27.988,0,0,0-18.033,17.3,27.689,27.689,0,0,0-1.633,8.52l7,.2A21.086,21.086,0,0,1,105.6,160.982Z" transform="translate(17.442 47.78)" fill="#128193"/>
      <path id="Path_4052" data-name="Path 4052" d="M114.4,162.129l2.84-6.418c-.568-.256-1.15-.483-1.747-.7a27.916,27.916,0,0,0-17.764-.369l2.045,6.716a20.8,20.8,0,0,1,13.319.27A13.053,13.053,0,0,1,114.4,162.129Z" transform="translate(23.271 47.4)" fill="#1eb68b"/>
      <path id="Path_4053" data-name="Path 4053" d="M119.252,159.33a27.689,27.689,0,0,0-6.972-4.26l-2.84,6.418a20.632,20.632,0,0,1,5.225,3.252Z" transform="translate(28.188 48.112)" fill="#bbbdbf"/>
      <rect id="Rectangle_1519" data-name="Rectangle 1519" width="9.713" height="33.284" transform="translate(235.066 295.053)" fill="#bbbdbf"/>
      <rect id="Rectangle_1520" data-name="Rectangle 1520" width="9.713" height="23.941" transform="translate(220.611 304.382)" fill="#bbbdbf"/>
      <rect id="Rectangle_1521" data-name="Rectangle 1521" width="9.713" height="48.705" transform="translate(249.067 279.618)" fill="#bbbdbf"/>
      <path id="Path_4054" data-name="Path 4054" d="M220.836,192.081l-.17-1.051-25.63,4.189-8.321,17.721-27.647,1.874-8.96,13.22-21.129-.525-.028,1.065,21.725.54,8.988-13.262,27.746-1.889,8.349-17.778Z" transform="translate(36.382 63.214)" fill="#bbbdbf"/>
      <rect id="Rectangle_1522" data-name="Rectangle 1522" width="33.951" height="6.319" rx="2.03" transform="translate(256.678 210.949) rotate(180)" fill="#1eb68b"/>
      <rect id="Rectangle_1523" data-name="Rectangle 1523" width="33.951" height="6.319" rx="2.03" transform="translate(256.678 221.954) rotate(180)" fill="#bbbdbf"/>
      <rect id="Rectangle_1524" data-name="Rectangle 1524" width="33.951" height="6.319" rx="2.03" transform="translate(256.678 232.973) rotate(180)" fill="#bbbdbf"/>
      <path id="Path_4055" data-name="Path 4055" d="M141.044,167.022h-15.8v-.611h15.549l8.321-8.321h10.2v.611h-9.94Z" transform="translate(34.824 49.38)" fill="#bbbdbf"/>
      <path id="Path_4056" data-name="Path 4056" d="M154.887,185.895H134.539l-6.589-6.589.44-.426,6.4,6.418h20.092Z" transform="translate(35.962 58.111)" fill="#bbbdbf"/>
      <rect id="Rectangle_1525" data-name="Rectangle 1525" width="21.086" height="2.584" transform="translate(185.438 211.489)" fill="#1eb68b"/>
      <rect id="Rectangle_1526" data-name="Rectangle 1526" width="16.969" height="2.584" transform="translate(179.006 237.871)" fill="#1eb68b"/>
      <path id="Path_4057" data-name="Path 4057" d="M24.141,202.98c4.842-2.315,9.67,13.106,9.67,13.106,8.236,10.891,19.752-3.592,18.63,12.68-1.974,28.484,32.773,8.96,16.741,38.694s14.2,16.812,4.26,40.781S76.4,360.78,61.415,349.065c0,0-13.206-28.953-26.823-37.9s8.165-19.581,3.9-31.75c-6.191-17.664-21.1-17.04-10.352-35.953S7.656,210.861,24.141,202.98Z" transform="translate(-9.694 68.133)" fill="url(#linear-gradient-8)"/>
      <path id="Path_4058" data-name="Path 4058" d="M60.331,329.243c-6.5-4.572-14.1-36.422-14.555-55.378-.241-9.713-3.11-13.759-5.68-17.338s-4.515-6.361-3.294-13.12c2.329-12.936-3.805-18.459-3.862-18.587l.71-.809c.27.241,6.645,6.006,4.26,19.581-1.136,6.333.738,8.974,3.11,12.325s5.595,7.881,5.836,17.92c.5,20.362,8.264,50.437,14.1,54.541Z" transform="translate(-3.938 77.064)" fill="#fff"/>
      <path id="Path_4059" data-name="Path 4059" d="M56.321,318.638a14.025,14.025,0,0,1-2.741-.3,6.007,6.007,0,0,1-4.885-3.933c-1.761-5,2.3-13.149,5.595-17.04a25.033,25.033,0,0,0,4.956-16.173c-.1-1.562-.256-3.01-.4-4.26-.426-3.692-.724-6.361.866-8.151,1.42-1.576,4.1-2.258,9.031-2.272,8.648,0,12.07-3.621,14.81-6.5a15.989,15.989,0,0,1,3.621-3.11h0c4.26-2.343,8.861-2.7,10.848-.824.937.895,1.732,2.641.17,5.893a22.621,22.621,0,0,1-4.743,6.376c-2,2.045-3.323,3.38-2.627,6.063.156.639.341,1.264.525,1.9,1.335,4.558,2.84,9.727-4.956,13.234a48.038,48.038,0,0,1-4.5,1.86c-5.438,2.144-8.733,3.436-12.439,11.275-.724,1.505-1.42,2.953-1.974,4.345C64.585,313.626,62.37,318.638,56.321,318.638Zm31.4-60.746a14.981,14.981,0,0,0-3.351,2.84c-2.84,3.025-6.475,6.787-15.62,6.83-4.53,0-7.1.625-8.222,1.917s-.994,3.9-.611,7.327c.142,1.278.3,2.741.412,4.345a25.673,25.673,0,0,1-5.24,16.9c-3.252,3.877-6.944,11.615-5.41,16.017a5.012,5.012,0,0,0,4.089,3.237c7.341,1.42,9.372-3.11,12.78-10.735.611-1.42,1.25-2.84,1.974-4.373,3.891-8.222,7.526-9.642,13.035-11.8,1.306-.525,2.84-1.108,4.444-1.846,6.944-3.124,5.68-7.412,4.359-11.942-.185-.653-.369-1.306-.54-1.945-.838-3.266.809-4.956,2.84-7.1a21.809,21.809,0,0,0,4.544-6.077c.71-1.42,1.292-3.479,0-4.658-1.619-1.534-5.68-1.108-9.6.994Z" transform="translate(2.5 90.026)" fill="url(#linear-gradient-9)"/>
      <path id="Path_4060" data-name="Path 4060" d="M52.409,322.288H51.33c0-1.008,1.42-24.778,10.948-31.736,10.479-7.625,13.774-15.833,15.35-21.3,1.846-6.489,11.274-8.222,11.672-8.293l.185,1.051c-.085,0-9.159,1.69-10.834,7.54s-5,14.072-15.733,21.9C53.787,298.021,52.423,322.075,52.409,322.288Z" transform="translate(3.785 92.581)" fill="url(#linear-gradient-10)"/>
      <path id="Path_4061" data-name="Path 4061" d="M78.283,219.881c-6.773-2.329-5.367,10.749-8.236,20.419s-31.878,4.26-19.709,28.4-15.392,8.094-7.1,29.237.71,43.735,9.67,37.984,5.027-32.361,14.342-35.5,10.834-6.844,1.619-15.449,24.139-17.125,15.918-34.491S86.164,222.564,78.283,219.881Z" transform="translate(-0.279 75.215)" fill="url(#linear-gradient-11)"/>
      <path id="Path_4062" data-name="Path 4062" d="M53.717,325.907c-.852-3.621-8.136-35.5-1.349-39.319,5.992-3.38,5.85-16.585,4.913-29.038-.824-11.033,13.333-16.188,13.944-16.4l.355,1.008c-.142,0-13.987,5.1-13.234,15.307.966,12.78,1.065,26.383-5.438,30.061-5.169,2.925-.412,28.513,1.846,38.126Z" transform="translate(3.017 84.262)" fill="#fff"/>
      <path id="Path_4063" data-name="Path 4063" d="M75.458,292.85,65.774,329.6H44.134L34.45,292.85Z" transform="translate(-3.304 105.974)" fill="url(#linear-gradient-12)"/>
      <path id="Path_4064" data-name="Path 4064" d="M75.433,292.85s-21.3,4-21.3,36.749h-9.94L34.51,292.85Z" transform="translate(-3.279 105.974)" fill="url(#linear-gradient-13)"/>
      <rect id="Rectangle_1527" data-name="Rectangle 1527" width="85.822" height="3.621" transform="translate(153.347 353.215)" fill="#e8e8e8"/>
      <rect id="Rectangle_1528" data-name="Rectangle 1528" width="92.723" height="3.621" transform="translate(153.347 361.678)" fill="#e8e8e8"/>
      <rect id="Rectangle_1529" data-name="Rectangle 1529" width="60.164" height="3.621" transform="translate(153.347 370.141)" fill="#e8e8e8"/>
      <rect id="Rectangle_1530" data-name="Rectangle 1530" width="44.686" height="3.621" transform="translate(153.347 353.215)" fill="#bbbdbf"/>
      <rect id="Rectangle_1531" data-name="Rectangle 1531" width="48.279" height="3.621" transform="translate(153.347 361.678)" fill="#bbbdbf"/>
      <rect id="Rectangle_1532" data-name="Rectangle 1532" width="31.324" height="3.621" transform="translate(153.347 370.141)" fill="#bbbdbf"/>
      <rect id="Rectangle_1533" data-name="Rectangle 1533" width="33.426" height="1.988" transform="translate(133.482 337.908)" fill="#e2d2ca"/>
      <rect id="Rectangle_1534" data-name="Rectangle 1534" width="2.925" height="90.238" transform="translate(140.894 435.288) rotate(180)" fill="#706865"/>
      <rect id="Rectangle_1535" data-name="Rectangle 1535" width="23.231" height="2.84" transform="translate(161.682 337.34)" fill="#ccbdb7"/>
      <rect id="Rectangle_1536" data-name="Rectangle 1536" width="8.804" height="26.724" transform="translate(168.896 313.158)" fill="#998e89"/>
      <rect id="Rectangle_1537" data-name="Rectangle 1537" width="128.733" height="5.126" transform="translate(121.498 339.924)" fill="#b59074"/>
      <path id="Path_4065" data-name="Path 4065" d="M83.781,232.049s-1.42,19.737,2.442,22.109c2.414,1.42,12.055,6.475,11.771,7.4s-5.438,8.335-5.438,8.335S74.1,257.707,73.444,253.859s.909-28.91,3.465-30.061c1.9-.866,2.84-.156,5.311,1.633C85.656,227.931,83.781,232.049,83.781,232.049Z" transform="translate(13.009 76.821)" fill="#f5f5f5" style="mix-blend-mode: hard-light;isolation: isolate"/>
      <path id="Path_4066" data-name="Path 4066" d="M98.944,310s-.568,3.99-.639,4.6-6.4-.355-6.4-.355l-.511-4.757S98.163,309.434,98.944,310Z" transform="translate(20.608 112.961)" fill="#424773"/>
      <path id="Path_4067" data-name="Path 4067" d="M98.657,312.81a16.841,16.841,0,0,0,3.933,3.451c1.945,1.051,5,1.42,6.148,2.556.824.781,3.01,4.16-5.041,4.09s-11.942.483-12.78-.809,1.25-9.556,1.25-9.556A17.182,17.182,0,0,0,98.657,312.81Z" transform="translate(20.327 114.243)" fill="#292c47"/>
      <path id="Path_4068" data-name="Path 4068" d="M127.518,310.032s-.582,3.99-.653,4.586-6.4-.341-6.4-.341l-.511-4.757S126.723,309.464,127.518,310.032Z" transform="translate(32.602 112.974)" fill="#424773"/>
      <path id="Path_4069" data-name="Path 4069" d="M127.217,312.84a17.04,17.04,0,0,0,3.947,3.45c1.931,1.051,9.074,1.917,10.224,3,.824.781,2.2,3.947-9.13,3.649-8.051-.213-11.942.469-12.78-.824s1.25-9.542,1.25-9.542S122.5,313.294,127.217,312.84Z" transform="translate(32.321 114.255)" fill="#292c47"/>
      <path id="Path_4070" data-name="Path 4070" d="M84.027,261.25s23.018,3.9,28.215,4.714,33.383,7.824,36.919,9.94c2.84,1.7-1.42,42.6-2.471,58.218h-11.1l-.809-46.759c-13.319.327-22.833-3.124-32.531-1.647s-17.792,3.578-23.955-4.743C78.29,280.973,78.063,263.053,84.027,261.25Z" transform="translate(15.106 92.703)" fill="#292c47"/>
      <path id="Path_4071" data-name="Path 4071" d="M108.036,332.648l-10.82-.682-.98-46.12a66.62,66.62,0,0,1-12.339-.781L75.15,264.76c7.668,1.534,32.19,7.71,35.5,9.7C113.347,276.162,109.016,317.057,108.036,332.648Z" transform="translate(13.788 94.177)" fill="#292c47"/>
      <path id="Path_4072" data-name="Path 4072" d="M91.515,200.619s8.435-2.343,11.644,4.26,1.761,18.956-2.485,20.135-10.366-.185-12.141-4.26-3.167-9.94-2.741-13.617S89.272,201.514,91.515,200.619Z" transform="translate(18.225 67.071)" fill="#eea886"/>
      <path id="Path_4073" data-name="Path 4073" d="M98.043,218.429s-.1,4.97.454,6.035-11.757.8-11.757.8a24.821,24.821,0,0,0,.838-11.076C86.5,209.143,98.043,218.429,98.043,218.429Z" transform="translate(18.655 72.307)" fill="#eea886"/>
      <path id="Path_4074" data-name="Path 4074" d="M87.511,217.78s.653,1.335,3.834,1.122,7.384-4.047,8.733-4.4,1.42-1.108,1.42-1.108l.71,1.278,1.42.2s-.937-3.848,1.108-5.2-.923-12.268-11.36-9.642c0,0-7.923,1.42-8.023,5.879S85.977,215.437,87.511,217.78Z" transform="translate(18.069 66.823)" fill="#141b56"/>
      <path id="Path_4075" data-name="Path 4075" d="M99.086,221.86s0-2.031-.951-2.215-9.67-1.42-10.792-.966l-.483,2.684S89.033,222.7,99.086,221.86Z" transform="translate(18.706 74.783)" fill="#e2d2ca"/>
      <path id="Path_4076" data-name="Path 4076" d="M98.307,209.345c-.241-1.661-2.13-3.564-3.209-.98s.724,6.361,1.945,6.163S98.619,211.6,98.307,209.345Z" transform="translate(22.026 69.961)" fill="#eea886"/>
      <path id="Path_4077" data-name="Path 4077" d="M121.27,237.77Z" transform="translate(33.156 82.842)" fill="#323657"/>
      <path id="Path_4078" data-name="Path 4078" d="M89.583,201.33s-10.28-.483-1.789,15.62Z" transform="translate(17.687 67.539)" fill="#141b56"/>
      <path id="Path_4079" data-name="Path 4079" d="M71.92,320.036l.767,2.158,32.332-10.025-1.548-4.359Z" transform="translate(12.432 112.256)" fill="#918783"/>
      <rect id="Rectangle_1538" data-name="Rectangle 1538" width="3.678" height="35.158" transform="translate(114.881 387.734)" fill="#918783"/>
      <rect id="Rectangle_1539" data-name="Rectangle 1539" width="21.683" height="2.073" transform="translate(105.892 385.874)" fill="#5e5854"/>
      <path id="Path_4080" data-name="Path 4080" d="M127.509,320.116l-.767,2.158L94.41,312.249l1.42-4.629Z" transform="translate(21.876 112.177)" fill="#918783"/>
      <path id="Path_4081" data-name="Path 4081" d="M104.719,322.033v2.513l-10.309-12.3,1.42-4.629Z" transform="translate(21.876 112.177)" fill="#918783"/>
      <path id="Path_4082" data-name="Path 4082" d="M121.629,319.424a3.025,3.025,0,1,1-3.01-3.025,3.024,3.024,0,0,1,3.01,3.025Z" transform="translate(30.767 115.864)" fill="#bfb2ac"/>
      <path id="Path_4083" data-name="Path 4083" d="M103.639,319.424a3.025,3.025,0,1,1-3.025-3.024,3.025,3.025,0,0,1,3.025,3.024Z" transform="translate(23.212 115.864)" fill="#bfb2ac"/>
      <path id="Path_4084" data-name="Path 4084" d="M75.839,319.424a3.025,3.025,0,1,1-3.025-3.024,3.025,3.025,0,0,1,3.025,3.024Z" transform="translate(11.537 115.864)" fill="#bfb2ac"/>
      <rect id="Rectangle_1540" data-name="Rectangle 1540" width="51.346" height="7.852" rx="2.49" transform="translate(91.196 378.021)" fill="#e2d2ca"/>
      <rect id="Rectangle_1541" data-name="Rectangle 1541" width="2.925" height="90.238" transform="translate(230.82 345.05)" fill="#706865"/>
      <rect id="Rectangle_1542" data-name="Rectangle 1542" width="75.968" height="53.589" rx="2.48" transform="translate(135.314 272.447)" fill="#b8aba5"/>
      <rect id="Rectangle_1543" data-name="Rectangle 1543" width="70.018" height="42.301" transform="translate(138.282 275.344)" fill="#f5f7ff"/>
      <path id="Path_4085" data-name="Path 4085" d="M158.657,239.142a2.84,2.84,0,1,1-2.84-2.187A2.57,2.57,0,0,1,158.657,239.142Z" transform="translate(46.504 82.493)" fill="#918681"/>
      <path id="Path_4086" data-name="Path 4086" d="M151.577,253.457v-.966s-1.335-5.921-10.82-5.921-9.287,6.887-9.287,6.887Z" transform="translate(37.44 86.538)" fill="#998e89"/>
      <path id="Path_4087" data-name="Path 4087" d="M132,248.277a9.528,9.528,0,0,0,2.84-.625c.753-.454,5.268-3.493,6.333-3s8.108,2.641,7.867,3.678-.895.937-1.42.753a35.728,35.728,0,0,0-6.077-1.079s5.041,1.832,5.055,3.181-1.051,1.661-1.534,2.173-1.051,1.761-2.343,1.86-7.639-2.116-8.932-2.215a31.933,31.933,0,0,1-3.891-.128A36.919,36.919,0,0,1,132,248.277Z" transform="translate(36.781 85.711)" fill="#eea886"/>
      <path id="Path_4088" data-name="Path 4088" d="M117.691,223.857c-6.574-1.15-13.49-2.84-13.49-2.84l-12.226-.5s-11.232,2.471-15.62,4.473c-.426.185-.426,10.011-1.576,12.6l3.592,7.753s2.116,15.321,2.556,22.137c.2,3.138-.568,30.231-.568,30.231s1.093.554,9.443,1.42,29.223-.327,29.351-1.321-4.047-36.72-4.26-38.566c-.284-2.84.824-15.96.824-15.96,1.576,2.1,5.58,11.658,9.769,16.187,2.457,2.67,14.626,4.26,16.926,4.388,5,.17,14.114,1.164,14.384.682s.781-8.094.213-8.278-17.423-1.15-21.754-3.45c-1.59-.838-6.333-11.175-6.333-11.175S121.269,225.461,117.691,223.857Z" transform="translate(13.633 75.598)" fill="#dbdff0"/>
      <rect id="Rectangle_1544" data-name="Rectangle 1544" width="35.414" height="49.045" rx="4.78" transform="translate(79.197 323.481)" fill="#e2d2ca"/>
      <path id="Path_4089" data-name="Path 4089" d="M94.266,290.964a16.216,16.216,0,0,1-12.6-5.211c-7.1-7.81-5.808-21.555-5.68-22.137a1.977,1.977,0,1,1,3.933.4c0,.156-1.15,12.609,4.757,19.1a12.24,12.24,0,0,0,9.656,3.919,1.974,1.974,0,1,1,0,3.933Z" transform="translate(14.069 92.95)" fill="#e2d2ca"/>
      <rect id="Rectangle_1545" data-name="Rectangle 1545" width="20.504" height="2.229" rx="0.36" transform="translate(143.251 278.709)" fill="#dfe1e8"/>
      <rect id="Rectangle_1546" data-name="Rectangle 1546" width="20.504" height="2.229" rx="0.36" transform="translate(143.251 283.509)" fill="#dfe1e8"/>
      <rect id="Rectangle_1547" data-name="Rectangle 1547" width="20.504" height="25.275" rx="1.2" transform="translate(143.251 289.004)" fill="#dfe1e8"/>
      <rect id="Rectangle_1548" data-name="Rectangle 1548" width="36.521" height="35.556" rx="1.9" transform="translate(167.902 278.709)" fill="#dfe1e8"/>
      <path id="Path_4090" data-name="Path 4090" d="M197.61,275.831a54.158,54.158,0,0,1,24.594,0l-6.489-33.241S199.584,259.743,197.61,275.831Z" transform="translate(65.216 84.867)" fill="#b3b7c4"/>
      <path id="Path_4091" data-name="Path 4091" d="M176.908,225.62s-2.485,1.789-3.209,1.562a15.161,15.161,0,0,0-2.67,0c-.7,0-2.528-.937-3.266-.753a22.386,22.386,0,0,1-2.584,1.42c-.625.085-1.917.114-1.818.653s1.235.809,1.235.809-.568.114-.639.611c-.128.966.369,1.292.369,1.292s-.5.5-.454.909a1.647,1.647,0,0,0,.582,1.221,1.533,1.533,0,0,0,0,1.051,1.42,1.42,0,0,0,1.051.866s.114,1.022.667,1.15a4.814,4.814,0,0,0,1.519-.071,18.87,18.87,0,0,0,6.8-3.45,22.72,22.72,0,0,1,5.112-3.28Z" transform="translate(50.831 77.74)" fill="#eea987"/>
      <path id="Path_4092" data-name="Path 4092" d="M210.218,177.928s3.706-2.386,7.1,1.846,2.144,8.307,1.42,12.1-4.075,12.4-2.641,16.2-.4,5.765-.4,5.765-11.5,2.954-10.167-14.356S210.218,177.928,210.218,177.928Z" transform="translate(68.498 57.43)" fill="#0c143f"/>
      <path id="Path_4093" data-name="Path 4093" d="M219.5,200.776a11.2,11.2,0,0,0-7.327,1.6c-2.939,2.2-4.956,6.333-5.85,7.625S194.967,222.9,194.4,223.1a131.117,131.117,0,0,0-11.459,6.731c-4.359,2.911-11.36,6.432-11.36,6.432l3.763,4.615s18.545-6.645,22.407-10.224c4.118-3.834,23.16-22.861,23.16-22.861S225.709,203.971,219.5,200.776Z" transform="translate(54.285 67.269)" fill="#dbdff0"/>
      <path id="Path_4094" data-name="Path 4094" d="M184.111,317.275s-4.743,6.376-4.1,7.4,5.68,1.15,8.676,0,3.11-8.633,4.473-11.857c.582-1.335-.653-5.311-2.371-5.595a7.227,7.227,0,0,0-3.621.554S188.967,312.305,184.111,317.275Z" transform="translate(57.799 111.993)" fill="#1d3b54"/>
      <path id="Path_4095" data-name="Path 4095" d="M186.375,307.754a30.8,30.8,0,0,0-1.42,5.311c-.3,2.158-3.38,6.731-3.223,7.3s4.033,1.108,5.68-.383,2.613-5.822,2.968-8.406a20.388,20.388,0,0,1,.738-3.607S187.909,306.164,186.375,307.754Z" transform="translate(58.545 111.958)" fill="#eea886"/>
      <path id="Path_4096" data-name="Path 4096" d="M189.6,310.76v6.674h-.866v-5.154Z" transform="translate(61.487 113.495)" fill="#1d3b54"/>
      <path id="Path_4097" data-name="Path 4097" d="M213.108,317.386s-4.572,6.262-3.919,7.284,5.68,1.15,8.676,0,3.1-8.633,4.473-11.857c.582-1.335-.653-5.311-2.386-5.595a7.626,7.626,0,0,0-3.749.611S217.964,312.4,213.108,317.386Z" transform="translate(70.052 111.995)" fill="#1d3b54"/>
      <path id="Path_4098" data-name="Path 4098" d="M215.438,307.9a44.644,44.644,0,0,1-.937,5.055c-.582,2.1-3.692,6.873-3.55,7.441s4.047,1.108,5.68-.383,2.84-5.808,2.968-8.406a13.829,13.829,0,0,0-.369-4.26,3.507,3.507,0,0,0-3.791.554Z" transform="translate(70.817 111.926)" fill="#eea886"/>
      <path id="Path_4099" data-name="Path 4099" d="M218.776,310.76v6.674h-.866v-5.154Z" transform="translate(73.741 113.495)" fill="#1d3b54"/>
      <path id="Path_4100" data-name="Path 4100" d="M203.619,238.68s-4.075,18.928-5.012,23.685-3.55,27.845-3.82,31.764-4.26,18.7-4.061,20.107-6.106,29.209-6.106,29.209,6.475,1.761,7.568.568,10.224-26.425,10.224-33.44c0-9.684,7.3-22.009,8.222-24.139,8.591-20.121,6.759-26.6,7.867-27.9s1.221.809,1.874,3.706,2.059,27.931,2.84,31.111.185,13.916.653,19.34,1.008,29.691,1.008,29.691,4.686,1.079,6.915,0c.639-.3,2.258-27.05,2.357-33.5s.2-15.336.369-18.119c1.732-26.709,4.26-30.5-.71-49.429C224.322,205.027,203.619,238.68,203.619,238.68Z" transform="translate(59.761 77.261)" fill="#3b3b40"/>
      <path id="Path_4101" data-name="Path 4101" d="M209.66,199.069a42.77,42.77,0,0,1-5.68,2.3c-1.42.3-7.185,7.725-8.193,10.437s0,6.787,2.059,11.558.128,6.376,1.065,11.147,0,15.975-.128,18.63,21.7,6.021,30.1-2.457c0,0-4.558-8.52-5.268-9.741s-.114-7.611.54-9.258S229.113,216,229.113,216s3.536-10.792.341-13.262c-2.769-2.158-10.323-2.925-11.672-3.394A23.3,23.3,0,0,0,209.66,199.069Z" transform="translate(64.285 66.491)" fill="#1eb68b"/>
      <path id="Path_4102" data-name="Path 4102" d="M205.254,208.886l-2.584-3.025,2.244-7.952a52.54,52.54,0,0,1,.341,10.976Z" transform="translate(67.341 66.103)" fill="#d6c5be"/>
      <path id="Path_4103" data-name="Path 4103" d="M204,197.237a102.571,102.571,0,0,1,.682,10.323s4.4,4.43,9.428-5.154a13.135,13.135,0,0,1-.525-9.329C215.189,187.7,204,197.237,204,197.237Z" transform="translate(67.9 63.382)" fill="#eea886"/>
      <path id="Path_4104" data-name="Path 4104" d="M204.49,202.79v4.047l5.069-3.791Z" transform="translate(68.105 68.152)" fill="#eea886"/>
      <path id="Path_4105" data-name="Path 4105" d="M204.49,208.5l2.1-2.613,7.1-7.071,2.3,2.215Z" transform="translate(68.105 66.485)" fill="#d6c5be"/>
      <path id="Path_4106" data-name="Path 4106" d="M203.632,205.862l-3.252.895,5.5-8.846Z" transform="translate(66.379 66.103)" fill="#fae6de"/>
      <path id="Path_4107" data-name="Path 4107" d="M205.97,206.03l2.968,3.891L215,199.569l-2.1-1.079Z" transform="translate(68.727 66.347)" fill="#fae6de"/>
      <path id="Path_4108" data-name="Path 4108" d="M204.14,197.729l.142,1.548s3.507.667,8.094-4.927a9.94,9.94,0,0,1-8.236,3.38Z" transform="translate(67.958 64.608)" fill="#a77860"/>
      <path id="Path_4109" data-name="Path 4109" d="M207.031,204.859c-1.42,0-5.225-.5-7.1-9.386-2.329-10.848,2.84-16.472,7.2-17.522s8.52.483,10.706,6.163c0,0,1.647,4.416-1.022,12.3S208.522,204.916,207.031,204.859Z" transform="translate(65.948 57.592)" fill="#eea987"/>
      <path id="Path_4110" data-name="Path 4110" d="M210.751,185.165s-5.907.369-11.36,8.6c0,0-2.556-9.94,4.146-14.441s11.431-.639,13.064,1.335c0,0,2.343.54,2.428,5s3.067,11.189-3.507,14.384c0,0,.625-5.1,0-6.262S212.938,193.415,210.751,185.165Z" transform="translate(65.763 57.421)" fill="#141b56"/>
      <path id="Path_4111" data-name="Path 4111" d="M210.53,187.72c.3-.767,1.108-1.079,1.562-.256s-.085,4.033-1.278,4.388S209.991,189.282,210.53,187.72Z" transform="translate(70.429 61.511)" fill="#eea987"/>
      <path id="Path_4112" data-name="Path 4112" d="M214.527,199.25s-6.66,7.98-7.37,24.75,5.254,70.345,4.885,76.877l17.3-8.378s-.1-26.979-5.893-44.019c-6.787-19.879.937-26.028,1.647-38.339,0,0-.327-8.988-5.325-9.8a23.658,23.658,0,0,1-5.24-1.093Z" transform="translate(69.201 66.666)" fill="#dbdff0"/>
      <path id="Path_4113" data-name="Path 4113" d="M207.716,200.09s-2.712.312-3.564,1.335-6.219,7.185-6.6,9-1.647,3.181.923,11.658a49.7,49.7,0,0,1,1.25,19.5c-.483,3.394-8.761,49.386-8.307,50.565s3.9,4,3.9,4,7.412-45.439,7.341-52.964S199.608,213.04,207.716,200.09Z" transform="translate(62.607 67.018)" fill="#dbdff0"/>
      <path id="Path_4114" data-name="Path 4114" d="M162.94,218.1l5.779,29.777,19.113-3.72-5.041-29.919Z" transform="translate(50.656 72.961)" fill="#616161"/>
      <path id="Path_4115" data-name="Path 4115" d="M163.95,219l5.14,26.44,16.969-3.294-4.473-26.582Z" transform="translate(51.08 73.515)" fill="#e0cec7"/>
      <path id="Path_4116" data-name="Path 4116" d="M167.845,218.661l-.355-1.86,6.858-1.321.625,1.8Z" transform="translate(52.567 73.482)" fill="#616161"/>
      <path id="Path_4117" data-name="Path 4117" d="M164.809,228.2s3.422-1.108,4.444-.469-.2,1.108-.2,1.108,1.193-.483,1.661.412-.98,1.42-.98,1.42a.994.994,0,0,1,1.122.923c.128,1.051-1.164,1.179-1.164,1.179s1.505.582.554,1.534a5.58,5.58,0,0,1-4.132,1.42,1.051,1.051,0,0,1-.852-1.108,1.42,1.42,0,0,1-1.008-2.016s-1.335-1.207-.156-2.13a1.264,1.264,0,0,1,.71-2.272Z" transform="translate(50.931 78.542)" fill="#db9c7c"/>
      <path id="Path_4118" data-name="Path 4118" d="M223.085,240.08a8.165,8.165,0,0,1-.724,5.4c-.54.838,0,7.1,0,7.923s.639,1.221.88,1.079.3-3.621.667-4.743.6-1.292.767-.994a46.506,46.506,0,0,1-.738,7.029c-.341,1.676.085,5.211.951,4.643s3.777-8.406,3.564-11.033a35.507,35.507,0,0,0-1.207-5.879Z" transform="translate(75.51 83.813)" fill="#eea886"/>
      <path id="Path_4119" data-name="Path 4119" d="M213.56,199.584s6.915-.426,10.38,3.607,3.266,8.818,4.146,10.905,2.84,11.019,3.337,12.467.88,9.585,1.505,16.145.511,18.772.511,18.772l-6.617-1.193-.426-18.459c-.17-6.759-5.68-18.715-7.753-23.941S208.292,202.864,213.56,199.584Z" transform="translate(71.19 66.8)" fill="#dbdff0"/>
      <rect id="Rectangle_1549" data-name="Rectangle 1549" width="62.89" height="0.994" transform="matrix(0.543, -0.84, 0.84, 0.543, 129.958, 94.457)" fill="url(#linear-gradient-14)"/>
      <path id="Path_4120" data-name="Path 4120" d="M92.348,29.612l-.838-.54L99.362,16.96l4.53,2.968-.54.838-3.692-2.428Z" transform="translate(20.659 -9.889)" fill="url(#linear-gradient-15)"/>
    </g>
  </g>
</svg>
